<?xml version="1.0" standalone="no"?>
<!DOCTYPE svg PUBLIC "-//W3C//DTD SVG 20010904//EN"
 "http://www.w3.org/TR/2001/REC-SVG-20010904/DTD/svg10.dtd">
<svg version="1.0" xmlns="http://www.w3.org/2000/svg"
 width="299.000000pt" height="145.000000pt" viewBox="0 0 299.000000 145.000000"
 preserveAspectRatio="xMidYMid meet">

<g transform="translate(0.000000,145.000000) scale(0.100000,-0.100000)"
fill="#000000" stroke="none">
<path d="M1264 1269 c-44 -21 -145 -114 -191 -176 -15 -21 -30 -40 -33 -43 -3
-3 -16 -20 -29 -37 -16 -24 -30 -33 -51 -33 -38 0 -60 -9 -60 -26 0 -9 11 -14
30 -14 17 0 30 -3 30 -8 0 -23 -183 -242 -202 -242 -5 0 -27 17 -51 38 -110
100 -173 127 -297 127 -105 0 -164 -21 -219 -76 -35 -35 -71 -110 -71 -148 0
-76 64 -149 152 -176 134 -39 284 1 443 120 l59 45 36 -33 c75 -72 97 -88 149
-114 70 -34 135 -40 198 -19 47 15 103 59 91 71 -2 3 -19 -2 -37 -11 -92 -46
-230 -15 -364 83 -51 38 -51 40 -2 95 33 36 93 120 148 209 30 49 40 57 73 63
54 8 133 47 179 87 52 46 122 142 130 179 13 60 -34 76 -111 39z m60 -15 c61
-23 -53 -182 -167 -232 -52 -23 -107 -37 -107 -27 0 28 148 204 198 236 49 31
52 32 76 23z m-806 -442 c56 -22 120 -64 176 -117 l38 -37 -28 -24 c-45 -37
-145 -83 -230 -104 -130 -33 -216 -24 -279 32 -32 27 -35 35 -35 84 0 46 5 58
31 89 75 86 217 119 327 77z"/>
<path d="M2520 1233 c-31 -32 -128 -164 -217 -293 -148 -214 -219 -303 -298
-369 -36 -30 -153 -94 -164 -89 -5 2 10 35 34 73 23 39 75 122 113 185 39 63
69 117 66 119 -2 2 -16 -2 -30 -9 -21 -12 -27 -12 -34 -1 -5 10 -23 12 -59 9
-76 -7 -132 -45 -329 -222 -88 -78 -184 -146 -207 -146 -8 0 -18 7 -22 16 -11
29 16 89 97 212 44 68 80 125 80 128 0 16 -32 -2 -67 -38 -94 -98 -193 -245
-193 -285 0 -34 29 -63 63 -63 42 0 168 74 255 150 15 13 15 9 1 -27 -27 -70
-3 -143 49 -143 22 0 68 26 100 57 24 23 33 14 17 -17 -11 -22 -41 -42 -119
-80 -112 -55 -179 -107 -226 -175 -33 -48 -45 -85 -35 -114 14 -44 120 -13
200 56 32 28 109 125 165 208 28 41 56 75 62 75 17 0 135 60 155 80 18 16 53
33 53 25 0 -2 -13 -25 -30 -51 -29 -46 -31 -64 -7 -64 7 1 39 38 71 83 135
186 174 227 277 285 57 32 79 29 79 -8 0 -25 -17 -48 -104 -133 -105 -102
-124 -134 -112 -181 7 -28 55 -51 89 -42 22 5 113 62 169 106 l28 22 -6 -46
c-8 -53 12 -86 52 -86 29 0 102 40 174 95 62 48 155 144 147 152 -3 3 -40 -25
-82 -61 -101 -89 -180 -139 -205 -131 -11 4 -20 12 -20 18 0 23 69 156 121
234 76 115 85 123 135 123 28 0 44 5 48 15 4 12 -3 15 -34 15 -22 0 -40 4 -40
9 0 5 27 46 60 90 44 59 55 81 43 81 -17 0 -57 -41 -130 -132 -35 -43 -42 -47
-87 -50 -51 -3 -80 -28 -33 -28 58 0 59 -9 14 -68 -24 -32 -50 -69 -60 -84
-46 -73 -249 -233 -286 -225 -25 5 -16 51 19 99 16 24 55 74 85 113 56 71 70
116 43 143 -20 20 -80 14 -125 -13 -24 -13 -43 -19 -43 -13 0 22 44 69 81 89
22 11 71 50 110 86 114 108 190 241 159 278 -23 28 -53 16 -110 -42z m90 1 c0
-35 -50 -114 -114 -182 -72 -76 -135 -121 -122 -87 12 33 170 257 194 276 26
20 42 17 42 -7z m-632 -431 c2 -16 -18 -49 -68 -110 -173 -212 -250 -266 -250
-177 0 53 44 128 118 203 101 103 192 141 200 84z m-303 -499 c-57 -85 -115
-143 -169 -169 -38 -20 -53 -19 -65 3 -21 39 43 134 133 195 69 46 149 80 155
65 2 -5 -22 -48 -54 -94z"/>
<path d="M1613 1008 c-40 -45 -54 -88 -29 -88 18 0 52 47 61 83 9 33 -5 35
-32 5z"/>
</g>
</svg>
